<svg width="120" height="28" viewBox="0 0 120 28" fill="none" xmlns="http://www.w3.org/2000/svg">
<path fill-rule="evenodd" clip-rule="evenodd" d="M71.3496 6.9532C70.7831 7.20426 70.4239 7.77224 70.44 8.39169V8.41169C70.4362 8.81861 70.6025 9.20862 70.8987 9.4877C71.1948 9.76677 71.594 9.90958 72 9.88169C72.6195 9.86933 73.1704 9.4845 73.3952 8.90706C73.62 8.32961 73.4743 7.67358 73.0262 7.24559C72.5781 6.81759 71.9161 6.70214 71.3496 6.9532ZM37.87 7.64169H34.87V19.7717H37.87V7.64169ZM43.74 10.4017C40.9 10.4017 39.06 12.1917 39.06 15.1917C39.06 18.2417 40.86 19.9917 43.74 19.9917C46.62 19.9917 48.42 18.1917 48.42 15.1917C48.42 12.1917 46.58 10.4017 43.74 10.4017ZM45.41 15.1917C45.41 13.5417 44.76 12.5717 43.74 12.5717C42.72 12.5717 42.08 13.5717 42.08 15.1917C42.08 16.8117 42.71 17.7917 43.74 17.7917C44.77 17.7917 45.41 16.8717 45.41 15.2017V15.1917ZM52.43 20.3617H49.55V20.3717C49.72 22.0317 51.37 23.2217 54.02 23.2217C56.87 23.2217 58.8 21.8617 58.8 19.6717V10.5717H55.8V12.2417C55.3375 11.1364 54.2372 10.4348 53.04 10.4817C50.74 10.4817 49.36 12.2917 49.36 15.1617C49.36 18.0317 50.81 19.7017 53 19.7017C54.1597 19.7647 55.241 19.1152 55.73 18.0617H55.79V19.7417C55.79 20.6417 55.19 21.2617 54.05 21.2617C53.3704 21.3531 52.7115 20.987 52.43 20.3617ZM55.8 15.1817C55.8 13.7217 55.13 12.8017 54.07 12.8017C53.01 12.8017 52.36 13.7117 52.36 15.1817C52.36 16.6517 53 17.4817 54.07 17.4817C55.14 17.4817 55.8 16.6717 55.8 15.1917V15.1817ZM64.61 10.3917C61.77 10.3917 59.93 12.1817 59.93 15.1817V15.1917C59.93 18.2417 61.72 19.9817 64.61 19.9817C67.5 19.9817 69.3 18.1817 69.3 15.1817C69.3 12.1817 67.45 10.3917 64.61 10.3917ZM66.28 15.1817C66.28 13.5317 65.63 12.5617 64.61 12.5617C63.59 12.5617 63 13.5717 63 15.2017C63 16.8317 63.63 17.8017 64.65 17.8017C65.67 17.8017 66.28 16.8717 66.28 15.2017V15.1817ZM70.44 10.5917H73.44V19.7717H70.44V10.5917ZM80.72 19.8917C83 19.8917 84.33 18.1817 84.33 15.1817L84.37 15.2017C84.37 12.2017 83 10.4817 80.7 10.4417C79.4932 10.3878 78.3818 11.0954 77.92 12.2117H77.86V10.5717H74.86V22.7117H77.86V18.1917H77.92C78.4043 19.2897 79.5224 19.9686 80.72 19.8917ZM81.33 15.1817C81.33 13.7217 80.66 12.7917 79.61 12.7917C78.56 12.7917 77.89 13.7317 77.88 15.1817C77.87 16.6317 78.56 17.5617 79.61 17.5617C80.66 17.5617 81.33 16.6517 81.33 15.2017V15.1817ZM93.55 13.4517C93.48 11.5617 91.97 10.3817 89.48 10.3817V10.4017C87 10.4017 85.39 11.5717 85.37 13.3717C85.37 14.7717 86.31 15.7217 88.1 16.0917L89.83 16.4617C90.55 16.6117 90.83 16.7117 90.83 17.1917C90.83 17.6717 90.43 17.9617 89.55 17.9617C88.67 17.9617 88.13 17.5617 88.04 16.8817H85.15C85.28 18.7517 86.95 19.9717 89.5 19.9717C92.05 19.9717 93.78 18.7517 93.78 16.8517C93.78 15.4617 93 14.7217 91.17 14.3317L89.25 13.9417C88.58 13.8017 88.25 13.6517 88.25 13.1817C88.25 12.7117 88.62 12.3917 89.45 12.3917C90.28 12.3917 90.82 12.8017 90.82 13.4517H93.55ZM103.79 19.7517H100.9V18.0417H100.84C100.513 19.2246 99.4055 20.0196 98.18 19.9517C97.2578 20.0041 96.3581 19.6542 95.7137 18.9925C95.0692 18.3308 94.7432 17.4222 94.82 16.5017V10.5717H97.82V15.8117C97.82 16.9017 98.38 17.4817 99.31 17.4817C99.7512 17.4826 100.171 17.293 100.463 16.9616C100.754 16.6301 100.888 16.1891 100.83 15.7517V10.5717H103.83L103.79 19.7517ZM108.14 10.5717H105.24L105.19 19.7717H108.19V14.3617C108.144 13.9812 108.264 13.5994 108.518 13.3127C108.772 13.026 109.137 12.8618 109.52 12.8617C110.34 12.8617 110.79 13.3617 110.79 14.2817V19.7717H113.64V14.3417C113.591 13.9659 113.707 13.5872 113.958 13.3034C114.209 13.0196 114.571 12.8585 114.95 12.8617C115.79 12.8617 116.24 13.3217 116.24 14.3217V19.7717H119.24V13.5217C119.3 12.6983 119.008 11.8882 118.435 11.2931C117.863 10.698 117.065 10.374 116.24 10.4017C114.954 10.3464 113.793 11.1694 113.42 12.4017H113.36C113.161 11.1725 112.051 10.3023 110.81 10.4017C109.6 10.3793 108.527 11.1766 108.2 12.3417H108.14V10.5717Z" fill="#696871"/>
<path fill-rule="evenodd" clip-rule="evenodd" d="M24.48 4.97168C25.2975 5.94361 25.9711 7.02804 26.48 8.19168C27.2213 9.88829 27.6026 11.7202 27.6 13.5717C27.5945 21.0451 21.5434 27.1051 14.07 27.1217C12.3311 27.1207 10.609 26.7811 9 26.1217C7.85235 25.6657 6.775 25.0496 5.8 24.2917C1.65298 21.1312 -0.308978 15.8691 0.756714 10.7651C1.82241 5.66115 5.72609 1.62372 10.7913 0.386755C15.8565 -0.850207 21.1817 0.933438 24.48 4.97168ZM18.58 3.76168C17.1642 3.10281 15.6215 2.76151 14.06 2.76168L14.07 2.74168C10.367 2.73891 6.92082 4.63345 4.93897 7.76142C2.95711 10.8894 2.71595 14.8146 4.3 18.1617C4.75169 17.6871 5.03004 17.0741 5.09 16.4217C5.45371 13.9091 7.42741 11.9354 9.94 11.5717C11.3576 11.4431 12.4897 10.3361 12.65 8.92168C13.0137 6.40909 14.9874 4.43539 17.5 4.07168C17.8718 4.01503 18.2348 3.91084 18.58 3.76168ZM5.79 20.5717C5.83 20.535 5.87 20.4994 5.91001 20.4639L5.91007 20.4638C5.99005 20.3927 6.07002 20.3217 6.15 20.2417C7.03965 19.3791 7.61071 18.2405 7.77 17.0117C7.83458 16.3209 8.143 15.6757 8.64 15.1917C9.11825 14.6938 9.76197 14.388 10.45 14.3317C12.9626 13.968 14.9363 11.9943 15.3 9.48168C15.3433 8.75919 15.6533 8.07852 16.17 7.57168C16.66 7.08353 17.3099 6.78878 18 6.74168C19.1239 6.58704 20.1721 6.08739 21 5.31168C21.9426 6.09375 22.7413 7.03457 23.36 8.09168C23.322 8.14303 23.2784 8.18998 23.23 8.23168C22.7527 8.73387 22.1098 9.04644 21.42 9.11168C18.9043 9.46912 16.9274 11.446 16.57 13.9617C16.4247 15.381 15.2999 16.5017 13.88 16.6417C11.3604 17.0026 9.37641 18.9744 9 21.4917C8.94618 21.9804 8.77834 22.4497 8.51 22.8617C7.484 22.2525 6.56508 21.4789 5.79 20.5717ZM11.06 24.0117C12.0354 24.2914 13.0453 24.4328 14.06 24.4317V24.3817C17.4091 24.3687 20.5634 22.8055 22.6021 20.1484C24.6409 17.4914 25.3343 14.04 24.48 10.8017C23.7208 11.3385 22.842 11.6817 21.92 11.8017C20.504 11.9461 19.3845 13.0657 19.24 14.4817C18.8752 16.9974 16.8965 18.972 14.38 19.3317C12.964 19.4761 11.8445 20.5957 11.7 22.0117C11.6106 22.7118 11.3937 23.3897 11.06 24.0117Z" fill="#696871"/>
</svg>
